<?xml version="1.0" encoding="UTF-8" standalone="no"?>
<svg width="321px" height="68px" viewBox="0 0 321 68" version="1.1" xmlns="http://www.w3.org/2000/svg" xmlns:xlink="http://www.w3.org/1999/xlink">
    <!-- Generator: Sketch 40 (33762) - http://www.bohemiancoding.com/sketch -->
    <title>Group</title>
    <desc>Created with Sketch.</desc>
    <defs></defs>
    <g id="Page-1" stroke="none" stroke-width="1" fill="none" fill-rule="evenodd">
        <g id="Artboard-2-Copy-2" transform="translate(-37.000000, -36.000000)">
            <g id="Group" transform="translate(37.000000, 37.000000)">
                <path d="M20.0303821,20.3657143 L4.64517497,20.3657143 L4.64517497,28.2857143 L0.0865950906,28.2857143 L0.0865950906,8.48571429 L4.07535249,4.52571429 L0.0865950906,4.52571429 L0.0865950906,0.565714286 L20.0303821,0.565714286 L20.0303821,4.52571429 L4.64517497,4.52571429 L4.64517497,19.8 L8.06410988,16.4057143 L20.0303821,16.4057143 L20.0303821,20.3657143 Z M50.6108554,28.2857143 L44.7986661,28.2857143 L32.9463584,16.4057143 L45.4824531,16.4057143 L45.4824531,4.52571429 L30.6670685,4.52571429 L30.6670685,28.2857143 L26.1084886,28.2857143 L26.1084886,8.42914286 L30.097246,4.52571429 L26.1084886,4.52571429 L26.1084886,0.565714286 L46.0522756,0.565714286 C47.1159495,0.565714286 48.0466503,0.961710326 48.8444057,1.75371429 C49.6421612,2.54571825 50.041033,3.46970901 50.041033,4.52571429 L50.041033,15.2742857 C50.041033,18.2914437 48.7114605,19.8 46.0522756,19.8 L42.6333407,19.8 L42.6333407,20.4222857 L50.6108554,28.2857143 Z M80.6215063,24.3257143 C80.6215063,25.419434 80.2321315,26.3528533 79.4533702,27.126 C78.6746089,27.8991467 77.7344112,28.2857143 76.6327489,28.2857143 L60.6777194,28.2857143 C59.576057,28.2857143 58.6358593,27.8991467 57.857098,27.126 C57.0783368,26.3528533 56.688962,25.419434 56.688962,24.3257143 L56.688962,4.52571429 C56.688962,3.43199453 57.0783368,2.49857529 57.857098,1.72542857 C58.6358593,0.952281849 59.576057,0.565714286 60.6777194,0.565714286 L76.6327489,0.565714286 C77.7344112,0.565714286 78.6746089,0.952281849 79.4533702,1.72542857 C80.2321315,2.49857529 80.6215063,3.43199453 80.6215063,4.52571429 L80.6215063,24.3257143 Z M76.0629265,24.3257143 L76.0629265,4.52571429 L61.2475418,4.52571429 L61.2475418,24.3257143 L76.0629265,24.3257143 Z M107.498134,24.3257143 C107.498134,25.419434 107.108759,26.3528533 106.329997,27.126 C105.551236,27.8991467 104.611038,28.2857143 103.509376,28.2857143 L87.5543466,28.2857143 L87.5543466,24.3257143 L102.939554,24.3257143 L102.939554,16.4057143 L91.543104,16.4057143 C90.4414417,16.4057143 89.501244,16.0191467 88.7224827,15.246 C87.9437214,14.4728533 87.5543466,13.539434 87.5543466,12.4457143 L87.5543466,4.52571429 C87.5543466,3.43199453 87.9437214,2.49857529 88.7224827,1.72542857 C89.501244,0.952281849 90.4414417,0.565714286 91.543104,0.565714286 L107.498134,0.565714286 L107.498134,4.52571429 L92.1129265,4.52571429 L92.1129265,12.4457143 L103.509376,12.4457143 C104.611038,12.4457143 105.551236,12.8322818 106.329997,13.6054286 C107.108759,14.3785753 107.498134,15.3119945 107.498134,16.4057143 L107.498134,24.3257143 Z M130.955826,4.52571429 L122.6934,4.52571429 L122.6934,28.2857143 L118.13482,28.2857143 L118.13482,4.52571429 L109.872394,4.52571429 L109.872394,0.565714286 L130.955826,0.565714286 L130.955826,4.52571429 Z M158.402276,24.3257143 C158.402276,25.419434 158.012901,26.3528533 157.234139,27.126 C156.455378,27.8991467 155.51518,28.2857143 154.413518,28.2857143 L134.469731,28.2857143 L134.469731,8.48571429 L138.458489,4.52571429 L134.469731,4.52571429 L134.469731,0.565714286 L150.424761,0.565714286 C151.526423,0.565714286 152.466621,0.952281849 153.245382,1.72542857 C154.024143,2.49857529 154.413518,3.43199453 154.413518,4.52571429 L154.413518,12.4457143 L154.527483,12.4457143 C155.629145,12.4457143 156.550349,12.8322818 157.291122,13.6054286 C158.031895,14.3785753 158.402276,15.3119945 158.402276,16.4057143 L158.402276,24.3257143 Z M149.854938,12.4457143 L149.854938,4.52571429 L139.028311,4.52571429 L139.028311,15.84 L142.447246,12.4457143 L149.854938,12.4457143 Z M153.843696,24.3257143 L153.843696,16.4057143 L139.028311,16.4057143 L139.028311,24.3257143 L153.843696,24.3257143 Z M189.26766,24.3257143 C189.26766,25.419434 188.878285,26.3528533 188.099524,27.126 C187.320763,27.8991467 186.380565,28.2857143 185.278903,28.2857143 L169.323873,28.2857143 C168.222211,28.2857143 167.282013,27.8991467 166.503252,27.126 C165.724491,26.3528533 165.335116,25.419434 165.335116,24.3257143 L165.335116,4.52571429 C165.335116,3.43199453 165.724491,2.49857529 166.503252,1.72542857 C167.282013,0.952281849 168.222211,0.565714286 169.323873,0.565714286 L185.278903,0.565714286 C186.380565,0.565714286 187.320763,0.952281849 188.099524,1.72542857 C188.878285,2.49857529 189.26766,3.43199453 189.26766,4.52571429 L189.26766,24.3257143 Z M184.70908,24.3257143 L184.70908,4.52571429 L169.893696,4.52571429 L169.893696,24.3257143 L184.70908,24.3257143 Z M217.283932,28.2857143 L197.340145,28.2857143 L197.340145,0.565714286 L201.898725,0.565714286 L201.898725,24.3257143 L212.725352,24.3257143 L212.725352,20.3657143 L217.283932,20.3657143 L217.283932,28.2857143 Z M237.32269,4.52571429 L229.060264,4.52571429 L229.060264,28.2857143 L224.501684,28.2857143 L224.501684,4.52571429 L216.239258,4.52571429 L216.239258,0.565714286 L237.32269,0.565714286 L237.32269,4.52571429 Z" id="FROSTBOLT" fill="#FFFFFF"></path>
                <path d="M20.6002048,60.1542857 C20.6002048,61.2480055 20.21083,62.1814247 19.4320687,62.9545714 C18.6533074,63.7277182 17.7131097,64.1142857 16.6114474,64.1142857 L0.656417848,64.1142857 L0.656417848,60.1542857 L16.0416249,60.1542857 L16.0416249,52.2342857 L4.64517524,52.2342857 C3.54351293,52.2342857 2.60331523,51.8477182 1.82455394,51.0745714 C1.04579265,50.3014247 0.656417848,49.3680055 0.656417848,48.2742857 L0.656417848,40.3542857 C0.656417848,39.260566 1.04579265,38.3271467 1.82455394,37.554 C2.60331523,36.7808533 3.54351293,36.3942857 4.64517524,36.3942857 L20.6002048,36.3942857 L20.6002048,40.3542857 L5.21499773,40.3542857 L5.21499773,48.2742857 L16.6114474,48.2742857 C17.7131097,48.2742857 18.6533074,48.6608533 19.4320687,49.434 C20.21083,50.2071467 20.6002048,51.140566 20.6002048,52.2342857 L20.6002048,60.1542857 Z M53.1750568,40.3542857 L44.9126308,40.3542857 L44.9126308,64.1142857 L40.3540509,64.1142857 L40.3540509,40.3542857 L32.0916249,40.3542857 L32.0916249,36.3942857 L53.1750568,36.3942857 L53.1750568,40.3542857 Z M89.7386662,64.1142857 L85.1800863,64.1142857 L85.1800863,60.72 L81.7611514,64.1142857 L69.7948792,64.1142857 C68.6932169,64.1142857 67.7530192,63.7277182 66.9742579,62.9545714 C66.1954966,62.1814247 65.8061218,61.2480055 65.8061218,60.1542857 L65.8061218,36.3942857 L70.3647017,36.3942857 L70.3647017,60.1542857 L85.1800863,60.1542857 L85.1800863,36.3942857 L89.7386662,36.3942857 L89.7386662,64.1142857 Z M131.145767,60.1542857 C131.145767,61.210291 130.746895,62.1342818 129.949139,62.9262857 C129.151384,63.7182897 128.220683,64.1142857 127.157009,64.1142857 L107.213222,64.1142857 L107.213222,44.3142857 L111.20198,40.3542857 L107.213222,40.3542857 L107.213222,36.3942857 L127.157009,36.3942857 C128.220683,36.3942857 129.151384,36.7902818 129.949139,37.5822857 C130.746895,38.3742897 131.145767,39.2982804 131.145767,40.3542857 L131.145767,60.1542857 Z M126.587187,60.1542857 L126.587187,40.3542857 L111.771802,40.3542857 L111.771802,63.5485714 L115.190737,60.1542857 L126.587187,60.1542857 Z M152.893991,64.1142857 L148.335412,64.1142857 L148.335412,36.3942857 L152.893991,36.3942857 L152.893991,64.1142857 Z M194.016181,60.1542857 C194.016181,61.2480055 193.626806,62.1814247 192.848045,62.9545714 C192.069283,63.7277182 191.129086,64.1142857 190.027423,64.1142857 L174.072394,64.1142857 C172.970731,64.1142857 172.030534,63.7277182 171.251772,62.9545714 C170.473011,62.1814247 170.083636,61.2480055 170.083636,60.1542857 L170.083636,40.3542857 C170.083636,39.260566 170.473011,38.3271467 171.251772,37.554 C172.030534,36.7808533 172.970731,36.3942857 174.072394,36.3942857 L190.027423,36.3942857 C191.129086,36.3942857 192.069283,36.7808533 192.848045,37.554 C193.626806,38.3271467 194.016181,39.260566 194.016181,40.3542857 L194.016181,60.1542857 Z M189.457601,60.1542857 L189.457601,40.3542857 L174.642216,40.3542857 L174.642216,60.1542857 L189.457601,60.1542857 Z M230.009968,60.1542857 C230.009968,61.2480055 229.620593,62.1814247 228.841832,62.9545714 C228.06307,63.7277182 227.122873,64.1142857 226.02121,64.1142857 L210.066181,64.1142857 L210.066181,60.1542857 L225.451388,60.1542857 L225.451388,52.2342857 L214.054938,52.2342857 C212.953276,52.2342857 212.013078,51.8477182 211.234317,51.0745714 C210.455555,50.3014247 210.066181,49.3680055 210.066181,48.2742857 L210.066181,40.3542857 C210.066181,39.260566 210.455555,38.3271467 211.234317,37.554 C212.013078,36.7808533 212.953276,36.3942857 214.054938,36.3942857 L230.009968,36.3942857 L230.009968,40.3542857 L214.62476,40.3542857 L214.62476,48.2742857 L226.02121,48.2742857 C227.122873,48.2742857 228.06307,48.6608533 228.841832,49.434 C229.620593,50.2071467 230.009968,51.140566 230.009968,52.2342857 L230.009968,60.1542857 Z" id="STUDIOS" stroke="#3AFEFB" stroke-width="0.7" fill="#000000"></path>
                <path d="M291.484942,44.4289684 L291.484942,36.1347884 L298.855824,40.2818784 L291.484942,44.4289684 L291.484942,44.4289684 Z M280.008766,40.2818784 L287.379778,36.1347884 L287.379778,44.4289684 L280.008766,40.2818784 L280.008766,40.2818784 Z M277.95638,28.5233673 L285.327131,32.6703297 L277.95638,36.817292 L277.95638,28.5233673 L277.95638,28.5233673 Z M287.379778,20.911691 L287.379778,29.2058709 L280.008766,25.0587809 L287.379778,20.911691 L287.379778,20.911691 Z M298.855824,25.0587809 L291.484942,29.2057433 L291.484942,20.911691 L298.855824,25.0587809 L298.855824,25.0587809 Z M300.90834,36.817292 L293.537458,32.6703297 L300.90834,28.5233673 L300.90834,36.817292 L300.90834,36.817292 Z M318.583186,36.8018502 L306.49229,39.9590036 L305.013503,39.1270588 L305.013503,26.2136005 L306.49229,25.3816557 L318.583186,28.5388092 L319.645785,24.6746493 L311.519927,22.5528646 L319.492564,18.0673304 L317.440047,14.6029993 L309.46741,19.0885334 L311.644599,11.1700623 L307.6793,10.134566 L304.439511,21.9171969 L302.960856,22.7492694 L291.484942,16.2925403 L291.484942,14.628523 L300.336181,6.00304546 L297.43335,3.17438195 L291.484942,8.97119596 L291.484942,0 L287.379778,0 L287.379778,8.97119596 L281.43124,3.17450957 L278.528539,6.00317308 L287.379778,14.628523 L287.379778,16.2925403 L275.903733,22.7492694 L274.425078,21.9171969 L271.18529,10.134566 L267.21999,11.1700623 L269.39731,19.0885334 L261.424804,14.6029993 L259.372157,18.0673304 L267.344794,22.5528646 L259.218935,24.674777 L260.281534,28.5389368 L272.372431,25.3817833 L273.851217,26.2137282 L273.851217,39.1270588 L272.372431,39.9590036 L260.281534,36.8018502 L259.218935,40.66601 L267.344663,42.7877948 L259.372157,47.2733289 L261.424804,50.7376601 L269.397441,46.2521259 L267.220121,54.1705971 L271.185421,55.2060934 L274.425209,43.4234624 L275.903864,42.5913899 L287.379778,49.0481191 L287.379778,50.7121364 L278.528539,59.3376139 L281.43124,62.1662774 L287.379778,56.3694634 L287.379778,65.3406593 L291.484942,65.3406593 L291.484942,56.3694634 L297.433481,62.1661498 L300.336181,59.3374863 L291.484942,50.7121364 L291.484942,49.0481191 L302.960856,42.5913899 L304.439511,43.4234624 L307.6793,55.2060934 L311.644599,54.1705971 L309.46741,46.2521259 L317.440047,50.7376601 L319.492564,47.2733289 L311.519927,42.7877948 L319.645785,40.66601 L318.583186,36.8018502 L318.583186,36.8018502 Z" id="Fill-1-Copy-3" stroke="#3AFEFB"></path>
                <path d="M245.923077,0.942857143 L245.923077,65.1679714" id="Line-Copy-9" stroke="#FFFFFF" stroke-width="2" stroke-linecap="square"></path>
            </g>
        </g>
    </g>
</svg>