<?xml version="1.0" encoding="UTF-8" standalone="no"?>
<svg width="25px" height="25px" viewBox="0 0 25 25" version="1.1" xmlns="http://www.w3.org/2000/svg" xmlns:xlink="http://www.w3.org/1999/xlink">
    <!-- Generator: Sketch 40 (33762) - http://www.bohemiancoding.com/sketch -->
    <title>Fill 1</title>
    <desc>Created with Sketch.</desc>
    <defs></defs>
    <g id="Page-1" stroke="none" stroke-width="1" fill="none" fill-rule="evenodd">
        <g id="Store" transform="translate(-1111.000000, -145.000000)" fill="#FFFFFF">
            <path d="M1135.69374,168.224416 L1129.68368,162.214358 C1131.17341,160.397974 1132.07123,158.071451 1132.07123,155.535617 C1132.07123,149.719373 1127.35186,145 1121.53562,145 C1115.7144,145 1111,149.719373 1111,155.535617 C1111,161.351861 1115.7144,166.071234 1121.53562,166.071234 C1124.07145,166.071234 1126.39274,165.17838 1128.20913,163.688652 L1134.21919,169.693735 C1134.62748,170.102088 1135.2857,170.102088 1135.69374,169.693735 C1136.10209,169.290675 1136.10209,168.627476 1135.69374,168.224416 L1135.69374,168.224416 Z M1121.53562,163.974429 C1116.87753,163.974429 1113.09189,160.188727 1113.09189,155.535617 C1113.09189,150.882507 1116.87753,147.091894 1121.53562,147.091894 C1126.18873,147.091894 1129.97966,150.882507 1129.97966,155.535617 C1129.97966,160.188727 1126.18873,163.974429 1121.53562,163.974429 L1121.53562,163.974429 Z" id="Fill-1"></path>
        </g>
    </g>
</svg>